<?xml version="1.0" encoding="UTF-8" standalone="no"?>
<!-- Created with Inkscape (http://www.inkscape.org/) -->

<svg
   width="250mm"
   height="250mm"
   viewBox="0 0 250 250"
   version="1.1"
   id="svg5"
   xml:space="preserve"
   inkscape:version="1.2.1 (9c6d41e410, 2022-07-14)"
   sodipodi:docname="maletin.svg"
   xmlns:inkscape="http://www.inkscape.org/namespaces/inkscape"
   xmlns:sodipodi="http://sodipodi.sourceforge.net/DTD/sodipodi-0.dtd"
   xmlns="http://www.w3.org/2000/svg"
   xmlns:svg="http://www.w3.org/2000/svg"><sodipodi:namedview
     id="namedview7"
     pagecolor="#505050"
     bordercolor="#ffffff"
     borderopacity="1"
     inkscape:showpageshadow="0"
     inkscape:pageopacity="0"
     inkscape:pagecheckerboard="1"
     inkscape:deskcolor="#505050"
     inkscape:document-units="mm"
     showgrid="false"
     inkscape:zoom="0.2692943"
     inkscape:cx="945.06272"
     inkscape:cy="596.00222"
     inkscape:window-width="1350"
     inkscape:window-height="784"
     inkscape:window-x="1573"
     inkscape:window-y="224"
     inkscape:window-maximized="0"
     inkscape:current-layer="layer1" /><defs
     id="defs2" /><g
     inkscape:label="Capa 1"
     inkscape:groupmode="layer"
     id="layer1"
     transform="translate(20,-23.5)"><circle
       style="fill:#1f2c25;fill-opacity:1;fill-rule:evenodd;stroke-width:0.833333;stroke-linecap:round;stroke-linejoin:bevel"
       id="path3088"
       cx="105"
       cy="148.5"
       r="125" /><path
       style="fill:#bfbfbf;fill-opacity:1;stroke-width:0.264583"
       d="m 44.888687,204.24819 c -3.142094,-1.07105 -5.56523,-3.42355 -7.001571,-6.79748 -0.483431,-1.13556 -0.51008,-2.18164 -0.576299,-22.62187 -0.06767,-20.88775 -0.05628,-21.45264 0.449256,-22.27491 0.768475,-1.24994 2.18486,-1.57895 3.586311,-0.83306 0.58352,0.31056 1.77532,0.93394 2.648445,1.38527 l 1.5875,0.82062 24.010937,0.0716 24.010936,0.0716 v 4.36869 c 0,4.9081 0.234281,5.90087 1.553517,6.58307 1.197221,0.61911 18.449911,0.61911 19.647131,0 1.31924,-0.6822 1.55352,-1.67497 1.55352,-6.58307 v -4.36869 l 24.01093,-0.0716 24.01095,-0.0716 1.5875,-0.82062 c 0.87313,-0.45133 2.06492,-1.07471 2.64844,-1.38527 1.40145,-0.74589 2.81783,-0.41688 3.58634,0.83306 0.50551,0.82218 0.51694,1.38589 0.44926,22.14262 -0.0654,20.05672 -0.0983,21.37611 -0.56404,22.62187 -1.25385,3.35385 -3.99266,6.00827 -7.23147,7.00863 -1.70364,0.5262 -2.35681,0.53192 -59.96901,0.52517 l -58.246608,-0.007 z m 0.892257,-56.15421 c -0.763886,-0.2057 -1.886243,-0.62773 -2.494128,-0.93785 -1.533942,-0.78256 -3.700286,-2.89805 -4.531338,-4.42496 -1.403711,-2.57908 -1.508083,-3.55682 -1.501055,-14.06156 0.0037,-5.55238 0.120409,-10.16209 0.274133,-10.8289 0.759681,-3.29527 3.114975,-6.2137 6.252984,-7.74803 l 1.800789,-0.8805 15.544271,-0.0761 15.54427,-0.0761 0.0021,-2.83428 c 0.0037,-5.19838 0.780815,-7.903791 2.944802,-10.251441 1.525842,-1.65534 2.978983,-2.62076 4.938149,-3.28076 1.580139,-0.53235 2.12095,-0.54687 20.368979,-0.54687 16.45609,0 18.92126,0.052 20.18282,0.42575 2.01702,0.59756 3.40291,1.47271 4.99052,3.15137 2.40034,2.538 3.18765,5.128791 3.19144,10.501951 l 0.002,2.83428 15.54428,0.0761 15.54427,0.0761 1.80079,0.8805 c 3.10833,1.51982 5.26146,4.1548 6.16355,7.54288 0.55494,2.08427 0.52617,20.10245 -0.0356,22.25903 -1.0917,4.19134 -4.42761,7.43877 -8.53713,8.31072 -0.97674,0.20722 -8.37439,0.29749 -24.37902,0.29749 h -22.9768 l -0.1016,-2.01192 c -0.0948,-1.8775 -0.15889,-2.0631 -0.95914,-2.77812 l -0.85753,-0.76621 h -9.51665 -9.516653 l -0.857536,0.76621 c -0.800248,0.71502 -0.864325,0.90062 -0.959135,2.77812 l -0.101598,2.01192 -23.188267,-0.0174 c -19.108704,-0.0143 -23.432618,-0.0832 -24.577153,-0.39141 z m 76.133676,-41.92451 v -2.91042 H 104.98129 88.047952 v 2.91042 2.91042 h 16.933338 16.93333 z"
       id="path3034" /></g></svg>
