<?xml version="1.0" encoding="UTF-8" standalone="no"?>
<!-- Created with Inkscape (http://www.inkscape.org/) -->

<svg
   width="99.056557mm"
   height="78.536514mm"
   viewBox="0 0 99.056557 78.536514"
   version="1.1"
   id="svg5"
   xml:space="preserve"
   inkscape:version="1.2.1 (9c6d41e410, 2022-07-14)"
   sodipodi:docname="pte.svg"
   xmlns:inkscape="http://www.inkscape.org/namespaces/inkscape"
   xmlns:sodipodi="http://sodipodi.sourceforge.net/DTD/sodipodi-0.dtd"
   xmlns="http://www.w3.org/2000/svg"
   xmlns:svg="http://www.w3.org/2000/svg"><sodipodi:namedview
     id="namedview7"
     pagecolor="#505050"
     bordercolor="#ffffff"
     borderopacity="1"
     inkscape:showpageshadow="0"
     inkscape:pageopacity="0"
     inkscape:pagecheckerboard="1"
     inkscape:deskcolor="#505050"
     inkscape:document-units="mm"
     showgrid="false"
     inkscape:zoom="0.76167929"
     inkscape:cx="131.9453"
     inkscape:cy="-68.270203"
     inkscape:window-width="1536"
     inkscape:window-height="793"
     inkscape:window-x="-8"
     inkscape:window-y="-8"
     inkscape:window-maximized="1"
     inkscape:current-layer="layer1" /><defs
     id="defs2" /><g
     inkscape:label="Capa 1"
     inkscape:groupmode="layer"
     id="layer1"
     transform="translate(-54.312145,-122.81078)"><path
       style="fill:#a5acb9;fill-opacity:1;stroke-width:0.500284"
       d="m 69.320712,150.69039 c 0,-5.87001 -0.143306,-10.81605 -0.318461,-10.99121 -0.175149,-0.17511 -1.424178,0.67567 -2.775608,1.89072 -2.884495,2.59341 -8.098419,5.34302 -9.315424,4.91256 -1.65969,-0.58703 -2.599074,-1.81579 -2.599074,-3.39973 0,-1.79885 0.785841,-2.64997 3.886029,-4.2088 2.787967,-1.40182 6.44018,-5.22233 10.280085,-10.75376 1.701556,-2.45112 3.452868,-4.67928 3.891805,-4.95146 1.520067,-0.94259 3.339593,0.0605 5.203396,2.86835 5.711344,8.60451 16.047961,14.27673 26.01681,14.27673 10.00066,0 20.32917,-5.46683 26.05378,-13.79014 3.6362,-5.28687 4.92243,-5.08869 9.30053,1.43302 3.77777,5.62747 7.87416,9.82605 11.26174,11.54267 1.39549,0.70713 2.67788,1.65225 2.84981,2.10025 0.9431,2.45766 -0.63624,4.9172 -3.11226,4.8468 -1.72499,-0.0489 -6.05524,-2.53742 -9.45754,-5.43472 l -2.1262,-1.81064 v 11.07107 11.07107 h -4.50256 -4.50258 V 149.8566 c 0,-7.69486 -0.17377,-11.50659 -0.52474,-11.50659 -0.2886,0 -1.86449,0.94485 -3.50199,2.09964 l -2.97727,2.09963 v 9.40695 9.40694 h -3.502 -3.50201 v -7.75444 c 0,-5.11571 -0.18,-7.75442 -0.52889,-7.75442 -0.29089,0 -1.47281,0.21213 -2.62649,0.47142 -1.15369,0.25926 -2.71671,0.60125 -3.4734,0.75995 l -1.37578,0.28854 v 6.99447 6.99448 h -3.502 -3.502 v -6.94972 -6.94972 l -3.56337,-0.80471 c -1.959856,-0.44261 -3.760881,-0.80471 -4.002288,-0.80471 -0.241398,0 -0.438914,3.48949 -0.438914,7.75442 v 7.75444 h -3.501999 -3.502 v -9.40993 -9.40994 l -3.038361,-2.09664 c -1.671099,-1.15315 -3.246998,-2.09665 -3.501998,-2.09665 -0.271222,0 -0.463637,4.77543 -0.463637,11.50659 v 11.50657 h -4.502571 -4.50257 z"
       id="path810"
       sodipodi:nodetypes="sssssssscssssscscccccssscccccsssscccccccssscccccssscccs" /><path
       style="fill:#35558c;fill-opacity:1;stroke-width:0.5;stroke-dasharray:none;fill-rule:nonzero"
       d="m 72.457464,201.03424 c -0.61362,-0.11855 -1.570416,-0.79362 -2.126213,-1.5002 -0.878642,-1.117 -1.010539,-2.02361 -1.010539,-6.94589 0,-3.11366 -0.245193,-6.80448 -0.544875,-8.20183 -0.950487,-4.43199 -4.174213,-7.29291 -9.074248,-8.05306 -4.646535,-0.72083 -5.389444,-1.74996 -5.389444,-7.46581 0,-3.97926 0.126932,-4.59436 1.207271,-5.85047 l 1.207272,-1.40367 45.444352,-0.14616 c 24.99442,-0.0804 46.20119,-0.009 47.12621,0.15826 0.925,0.16752 2.21948,0.84209 2.87663,1.49925 1.07457,1.07454 1.19482,1.6284 1.19482,5.50286 0,6.11148 -0.59919,6.90544 -5.85711,7.76118 -3.89551,0.63401 -6.44613,2.44834 -7.93379,5.64352 -1.09224,2.34587 -1.20836,3.25514 -1.21279,9.49597 -0.004,6.60543 -0.0561,6.95295 -1.19971,8.09648 -1.46036,1.46036 -3.99351,1.98486 -7.73446,1.60146 -4.2418,-0.43474 -4.86073,-1.38654 -5.19793,-7.99329 -0.40445,-7.92465 -2.64836,-12.1858 -7.96903,-15.13308 l -2.66789,-1.47781 h -9.75557 c -9.384791,0 -9.847416,0.0468 -12.171837,1.23425 -5.50702,2.81304 -7.888487,7.19277 -8.305846,15.27517 -0.156297,3.02672 -0.480502,5.80752 -0.720461,6.17954 -1.074889,1.66646 -6.087967,2.51475 -10.184812,1.72341 z"
       id="path804" /></g></svg>
