<?xml version="1.0" encoding="UTF-8" standalone="no"?>
<!-- Created with Inkscape (http://www.inkscape.org/) -->

<svg
   width="299.99997mm"
   height="300mm"
   viewBox="0 0 299.99997 300"
   version="1.1"
   id="svg5"
   xml:space="preserve"
   inkscape:version="1.2.1 (9c6d41e410, 2022-07-14)"
   sodipodi:docname="bg-card.svg"
   xmlns:inkscape="http://www.inkscape.org/namespaces/inkscape"
   xmlns:sodipodi="http://sodipodi.sourceforge.net/DTD/sodipodi-0.dtd"
   xmlns:xlink="http://www.w3.org/1999/xlink"
   xmlns="http://www.w3.org/2000/svg"
   xmlns:svg="http://www.w3.org/2000/svg"><sodipodi:namedview
     id="namedview7"
     pagecolor="#505050"
     bordercolor="#ffffff"
     borderopacity="1"
     inkscape:showpageshadow="0"
     inkscape:pageopacity="0"
     inkscape:pagecheckerboard="1"
     inkscape:deskcolor="#505050"
     inkscape:document-units="mm"
     showgrid="false"
     inkscape:zoom="0.2692943"
     inkscape:cx="168.96013"
     inkscape:cy="1295.9799"
     inkscape:window-width="1920"
     inkscape:window-height="1009"
     inkscape:window-x="1912"
     inkscape:window-y="-8"
     inkscape:window-maximized="1"
     inkscape:current-layer="layer1" /><defs
     id="defs2"><linearGradient
       inkscape:collect="always"
       id="linearGradient5710"><stop
         style="stop-color:#0b171d;stop-opacity:1;"
         offset="0"
         id="stop5706" /><stop
         style="stop-color:#1b3846;stop-opacity:0.75076926;"
         offset="1"
         id="stop5708" /></linearGradient><linearGradient
       inkscape:collect="always"
       xlink:href="#linearGradient5710"
       id="linearGradient5712-9"
       x1="317.98547"
       y1="240.79028"
       x2="619.58771"
       y2="240.79028"
       gradientUnits="userSpaceOnUse"
       gradientTransform="matrix(0.99100715,0,0,0.95095753,2.91442,4.110598)" /></defs><g
     inkscape:label="Capa 1"
     inkscape:groupmode="layer"
     id="layer1"
     transform="translate(-318.13454,-83.817397)"><path
       id="rect1514-3-3"
       style="font-variation-settings:'wdth' 88, 'wght' 491;fill:#4e61f3;fill-opacity:0.268987;fill-rule:evenodd;stroke:none;stroke-width:0.323674;stroke-linecap:round;stroke-linejoin:bevel"
       d="m 318.13454,83.817397 0.0713,276.132313 c 56.00994,16.72466 73.63646,25.98105 95.36504,20.37857 36.73233,-13.33391 5.79762,-10.6038 25.4322,-12.77825 16.57795,-1.83594 29.80271,2.08907 39.66512,5.10144 40.98682,12.51897 64.96135,4.24505 86.87548,-0.76813 20.4355,-3.5241 19.0131,-2.10012 52.6803,3.01097 l -0.1075,-291.076913 z"
       sodipodi:nodetypes="cccsscccc" /><path
       id="rect1514-3-7"
       style="font-variation-settings:'wdth' 88, 'wght' 491;fill:#5bc19e;fill-opacity:0.642405;fill-rule:evenodd;stroke:none;stroke-width:0.323674;stroke-linecap:round;stroke-linejoin:bevel;stroke-opacity:1"
       d="m 318.07205,83.817397 0.12498,279.981913 c 10.68708,7.22641 14.86147,8.27037 25.02506,9.32087 11.99857,1.92426 46.4387,-12.17193 65.71875,-7.78275 10.27142,2.33832 59.9489,21.96198 94.60391,17.40832 49.60812,-14.34858 90.8046,-35.6789 114.64361,-11.13727 L 618.08072,83.817397 Z"
       sodipodi:nodetypes="cccscccc" /><path
       id="rect1514-7"
       style="font-variation-settings:'wdth' 88, 'wght' 491;fill:url(#linearGradient5712-9);fill-opacity:1;fill-rule:evenodd;stroke:none;stroke-width:0.289427;stroke-linecap:round;stroke-linejoin:bevel;stroke-opacity:1"
       d="m 318.13454,83.817397 c 0,0 0.107,212.724083 0.107,275.596743 26.9711,-3.99322 53.2865,-0.0973 79.0742,10.79454 24.5815,8.04991 43.1346,12.05156 60.436,12.15678 17.3013,0.10521 33.351,-7.78466 52.9262,-15.31956 28.5372,-12.48714 65.5883,-15.0543 107.5101,3.6405 V 83.817397 Z"
       sodipodi:nodetypes="cccscccc" /></g></svg>
