<?xml version="1.0" encoding="UTF-8" standalone="no"?>
<!-- Created with Inkscape (http://www.inkscape.org/) -->

<svg
   width="299.99997mm"
   height="300mm"
   viewBox="0 0 299.99997 300"
   version="1.1"
   id="svg5"
   xml:space="preserve"
   inkscape:version="1.2.1 (9c6d41e410, 2022-07-14)"
   sodipodi:docname="question.svg"
   xmlns:inkscape="http://www.inkscape.org/namespaces/inkscape"
   xmlns:sodipodi="http://sodipodi.sourceforge.net/DTD/sodipodi-0.dtd"
   xmlns="http://www.w3.org/2000/svg"
   xmlns:svg="http://www.w3.org/2000/svg"><sodipodi:namedview
     id="namedview7"
     pagecolor="#505050"
     bordercolor="#ffffff"
     borderopacity="1"
     inkscape:showpageshadow="0"
     inkscape:pageopacity="0"
     inkscape:pagecheckerboard="1"
     inkscape:deskcolor="#505050"
     inkscape:document-units="mm"
     showgrid="false"
     inkscape:zoom="0.38083965"
     inkscape:cx="410.9341"
     inkscape:cy="708.95979"
     inkscape:window-width="1920"
     inkscape:window-height="1009"
     inkscape:window-x="1912"
     inkscape:window-y="-8"
     inkscape:window-maximized="1"
     inkscape:current-layer="text848" /><defs
     id="defs2" /><g
     inkscape:label="Capa 1"
     inkscape:groupmode="layer"
     id="layer1"
     transform="translate(-318.13454,-83.817397)"><g
       aria-label="?"
       id="text848"
       style="font-size:37.7346px;font-family:'Arial Rounded MT Bold';-inkscape-font-specification:'Arial Rounded MT Bold, @wght=491,wdth=88.0';font-variation-settings:'wdth' 88, 'wght' 491;fill:#24bfaa;fill-rule:evenodd;stroke-width:10.6964;stroke-linecap:round;stroke-linejoin:bevel"><path
         d="m 492.27509,313.13838 v 64.48784 H 427.78725 V 313.13838 Z M 439.21081,179.55642 H 380.9875 v -1.84251 q 0,-41.27222 22.29437,-63.01384 22.29437,-21.925865 64.11934,-21.925865 36.8502,0 58.22331,18.425095 21.37312,18.24085 21.37312,49.37927 0,16.76683 -7.37004,33.53367 -7.37004,16.58259 -27.63765,42.37773 -0.737,0.92125 -2.39526,2.94802 -21.37312,27.63764 -21.37312,45.69424 v 3.13227 l -56.19655,-0.18426 q -0.55275,-3.13226 -0.92125,-6.44878 -0.18425,-3.31652 -0.18425,-6.63304 0,-14.92432 5.89603,-28.74315 5.89603,-13.81882 24.68963,-37.40295 l 1.10551,-1.28975 q 19.8991,-24.50538 19.8991,-41.64073 0,-12.16056 -5.52753,-18.7936 -5.52753,-6.81728 -15.47708,-6.81728 -10.5023,0 -16.58259,8.84404 -6.08028,8.6598 -6.08028,23.95263 0,1.10551 0.18425,3.31652 0.18425,2.02676 0.18425,3.13227 z"
         style="-inkscape-font-specification:'Swis721 BlkCn BT, Normal'"
         id="path844" /></g></g></svg>
